<svg xmlns="http://www.w3.org/2000/svg" viewBox="0 0 100 48" width="100%" height="100%">
  <!-- Git Logo on the Left -->
  <g transform="translate(2, 4) scale(1.25)">
    <path d="M2.58536 17.4132C1.80488 16.6327 1.80488 15.3673 2.58536 14.5868L14.5868 2.58536C15.3673 1.80488 16.6327 1.80488 17.4132 2.58536L29.4146 14.5868C30.1951 15.3673 30.1951 16.6327 29.4146 17.4132L17.4132 29.4146C16.6327 30.1951 15.3673 30.1951 14.5868 29.4146L2.58536 17.4132Z" fill="#F05032"/>
    <path d="M12.1489 5.06152L10.9336 6.27686L14.0725 9.41577C13.9455 9.68819 13.8746 9.99201 13.8746 10.3124C13.8746 11.222 14.4461 11.9981 15.2496 12.3012V19.9798C14.4461 20.2829 13.8746 21.059 13.8746 21.9686C13.8746 23.1422 14.826 24.0936 15.9996 24.0936C17.1732 24.0936 18.1246 23.1422 18.1246 21.9686C18.1246 21.144 17.6549 20.429 16.9684 20.0768V12.3117L19.9689 15.3122C19.8481 15.5791 19.7809 15.8754 19.7809 16.1874C19.7809 17.361 20.7323 18.3124 21.9059 18.3124C23.0795 18.3124 24.0309 17.361 24.0309 16.1874C24.0309 15.0138 23.0795 14.0624 21.9059 14.0624C21.6778 14.0624 21.4582 14.0983 21.2522 14.1648L18.0297 10.9423C18.0914 10.7433 18.1246 10.5317 18.1246 10.3124C18.1246 9.13878 17.1732 8.18738 15.9996 8.18738C15.7803 8.18738 15.5688 8.22061 15.3697 8.2823L12.1489 5.06152Z" fill="white"/>
  </g>
  
  <!-- GitHub Logo on the Right -->
  <g transform="translate(-648, -560)" fill="#24292e">
    <path d="M723.9985,560 C710.746,560 700,570.787092 700,584.096644 C700,594.740671 706.876,603.77183 716.4145,606.958412 C717.6145,607.179786 718.0525,606.435849 718.0525,605.797328 C718.0525,605.225068 718.0315,603.710086 718.0195,601.699648 C711.343,603.155898 709.9345,598.469394 709.9345,598.469394 C708.844,595.686405 707.2705,594.94548 707.2705,594.94548 C705.091,593.450075 707.4355,593.480194 707.4355,593.480194 C709.843,593.650366 711.1105,595.963499 711.1105,595.963499 C713.2525,599.645538 716.728,598.58234 718.096,597.964902 C718.3135,596.407754 718.9345,595.346062 719.62,594.743683 C714.2905,594.135281 708.688,592.069123 708.688,582.836167 C708.688,580.205279 709.6225,578.054788 711.1585,576.369634 C710.911,575.759726 710.0875,573.311058 711.3925,569.993458 C711.3925,569.993458 713.4085,569.345902 717.9925,572.46321 C719.908,571.928599 721.96,571.662047 724.0015,571.651505 C726.04,571.662047 728.0935,571.928599 730.0105,572.46321 C734.5915,569.345902 736.603,569.993458 736.603,569.993458 C737.9125,573.311058 737.089,575.759726 736.8415,576.369634 C738.3805,578.054788 739.309,580.205279 739.309,582.836167 C739.309,592.091712 733.6975,594.129257 728.3515,594.725612 C729.2125,595.469549 729.9805,596.939353 729.9805,599.18773 C729.9805,602.408949 729.9505,605.006706 729.9505,605.797328 C729.9505,606.441873 730.3825,607.191834 731.6005,606.9554 C741.13,603.762794 748,594.737659 748,584.096644 C748,570.787092 737.254,560 723.9985,560" />
  </g>
</svg>
