<svg xmlns="http://www.w3.org/2000/svg" viewBox="0 0 260 142" width="100%" height="100%">
  <!-- HTML5 Logo (on the left) -->
  <g transform="translate(0, 7)">
    <g transform="scale(0.9)">
      <path fill="#E44D26" d="M19.037 113.876L9.032 1.661h109.936l-10.016 112.198-45.019 12.48z"/>
      <path fill="#F16529" d="M64 116.8l36.378-10.086 8.559-95.878H64z"/>
      <path fill="#EBEBEB" d="M64 52.455H45.788L44.53 38.361H64V24.599H29.489l.33 3.692 3.382 37.927H64zm0 35.743l-.061.017-15.327-4.14-.979-10.975H33.816l1.928 21.609 28.193 7.826.063-.017z"/>
      <path fill="#fff" d="M63.952 52.455v13.763h16.947l-1.597 17.849-15.35 4.143v14.319l28.215-7.82.207-2.325 3.234-36.233.335-3.696h-3.708zm0-27.856v13.762h33.244l.276-3.092.628-6.978.329-3.692z"/>
    </g>
  </g>
  <!-- CSS3 Logo (on the right) -->
  <g transform="translate(136, 0)">
    <path d="M10.383 126.892L0 0l124 .255-10.979 126.637-50.553 14.638z" fill="#1b73ba"/>
    <path d="M62.468 129.275V12.085l51.064.17-9.106 104.85z" fill="#1c88c7"/>
    <path d="M100.851 27.064H22.298l2.128 15.318h37.276l-36.68 15.745 2.127 14.808h54.043l-1.958 20.68-18.298 3.575-16.595-4.255-1.277-11.745H27.83l2.042 24.426 32.681 9.106 31.32-9.957 4-47.745H64.765l36.085-14.978z" fill="#fff"/>
  </g>
</svg>
